# xmcd CD database file
#
# Track frame offsets:
#	150
#	30080
#	56751
#	80342
#	104926
#	129788
#	152974
#	180469
#	203478
#	231244
#	254968
#
# Disc length: 3675 seconds
#
# Revision: 0
# Processed by: cddbd v1.4PL0 Copyright (c) Steve Scherf et al.
# Submitted via: CDex 1.51
#
DISCID=900e590b
DTITLE=Colin Willsher - Zen Garden
DYEAR=1900
DGENRE=New Age
TTITLE0=prelude to a journey
TTITLE1=orange blossom
TTITLE2=zen garden
TTITLE3=yogi's trance
TTITLE4=meditation
TTITLE5=eastern promises
TTITLE6=dream dragon
TTITLE7=water music
TTITLE8=shin tao
TTITLE9=thai massage
TTITLE10=epilogue
EXTD=
EXTT0=
EXTT1=
EXTT2=
EXTT3=
EXTT4=
EXTT5=
EXTT6=
EXTT7=
EXTT8=
EXTT9=
EXTT10=
PLAYORDER=
